<?xml version="1.0" standalone="no"?>
<!DOCTYPE svg PUBLIC "-//W3C//DTD SVG 20010904//EN"
 "http://www.w3.org/TR/2001/REC-SVG-20010904/DTD/svg10.dtd">
<svg version="1.0" xmlns="http://www.w3.org/2000/svg"
 width="1280.000000pt" height="1280.000000pt" viewBox="0 0 1280.000000 1280.000000"
 preserveAspectRatio="xMidYMid meet">
<metadata>
Created by potrace 1.15, written by Peter Selinger 2001-2017
</metadata>
<g transform="translate(0.000000,1280.000000) scale(0.100000,-0.100000)"
fill="#ffffff" stroke="none">
<path d="M2829 10385 c-450 -343 -770 -615 -1013 -860 -570 -574 -920 -1159
-1145 -1910 -29 -98 -84 -332 -96 -411 -1 -11 -8 -45 -14 -75 -61 -307 -62
-1077 0 -1431 5 -32 12 -74 14 -95 9 -85 72 -433 113 -628 17 -77 38 -176 46
-220 33 -164 58 -235 92 -272 18 -19 40 -33 49 -31 10 2 30 34 48 78 200 483
580 915 1045 1189 57 34 105 61 107 61 3 0 42 18 87 41 111 54 198 88 283 112
114 31 146 36 236 37 152 0 306 -55 449 -160 75 -56 215 -198 282 -285 116
-152 248 -385 323 -566 32 -77 97 -283 121 -380 9 -38 20 -68 25 -67 4 2 47
37 95 78 237 204 471 339 694 400 70 19 109 23 220 23 124 -1 143 -3 230 -32
270 -90 482 -281 702 -632 139 -223 304 -550 393 -780 20 -52 47 -121 60 -154
12 -33 26 -71 30 -85 3 -14 10 -34 15 -45 35 -83 123 -403 164 -600 22 -105
23 -109 35 -80 33 82 272 692 368 940 47 122 83 210 113 280 5 11 23 54 41 95
85 201 183 373 306 536 181 242 404 405 663 485 98 30 115 32 255 33 137 1
158 -2 244 -27 201 -60 355 -161 607 -397 98 -91 120 -108 125 -93 4 10 17 56
30 103 137 511 326 837 623 1074 253 202 589 284 866 211 225 -58 386 -156
601 -366 137 -134 223 -237 454 -544 402 -534 458 -606 465 -598 13 16 75 210
135 423 14 52 33 118 41 145 81 284 174 838 195 1160 9 139 3 666 -9 765 -40
328 -79 525 -152 770 -31 103 -99 297 -123 351 -9 19 -30 68 -48 109 -257 602
-767 1262 -1424 1845 -257 228 -621 522 -632 511 -3 -3 -11 -112 -19 -243 -7
-131 -18 -292 -23 -358 -6 -66 -13 -163 -16 -216 -13 -211 -60 -304 -204 -396
-48 -31 -108 -60 -326 -158 -145 -65 -420 -174 -655 -261 -263 -97 -638 -215
-890 -280 -52 -13 -109 -29 -125 -34 -17 -6 -60 -17 -95 -25 -36 -8 -103 -23
-150 -34 -116 -28 -117 -28 -124 17 -4 20 -14 60 -21 87 -18 61 -53 194 -150
565 -42 160 -82 295 -93 310 -28 36 -67 48 -100 29 -31 -17 -32 -37 -13 -131
34 -165 -81 -361 -263 -448 -108 -51 -175 -64 -341 -63 -230 1 -475 44 -553
97 -74 50 -93 99 -103 264 -8 146 -15 175 -55 233 -25 37 -94 76 -112 65 -5
-3 -13 -23 -16 -43 -13 -73 -84 -363 -131 -540 -10 -34 -45 -145 -79 -245 -53
-159 -64 -183 -81 -181 -39 3 -307 76 -585 159 -281 84 -886 301 -1047 375
-24 10 -45 19 -49 19 -6 0 -122 49 -194 82 -25 12 -85 38 -133 59 -150 64
-217 107 -297 188 -126 128 -216 322 -240 517 -19 155 -4 574 25 663 3 11 2
21 -3 21 -5 0 -83 -56 -173 -125z"/>
</g>
</svg>
